<svg viewBox="0 0 500 144.2" xmlns="http://www.w3.org/2000/svg" data-name="Capa 1" id="Capa_1">
  <defs>
    <style>
      .cls-1 {
        fill: #5f646b;
      }

      .cls-1, .cls-2, .cls-3 {
        stroke-width: 0px;
      }

      .cls-2 {
        fill: #d21317;
      }

      .cls-3 {
        fill: #d21217;
      }
    </style>
  </defs>
  <g>
    <path d="M194.65,23.04l23.73,63.46h-14.49l-4.8-14.13h-23.73l-4.98,14.13h-14.04l24-63.46h14.31ZM195.44,61.97l-8-23.29h-.18l-8.27,23.29h16.44Z" class="cls-3"></path>
    <path d="M233.13,40.55v6.22h.18c1.66-2.37,3.66-4.21,6-5.51,2.34-1.3,5.02-1.95,8.04-1.95s5.55.56,7.96,1.69c2.4,1.13,4.22,3.11,5.47,5.96,1.36-2.01,3.21-3.79,5.55-5.33,2.34-1.54,5.11-2.31,8.31-2.31,2.43,0,4.68.3,6.75.89,2.07.59,3.85,1.54,5.33,2.84,1.48,1.3,2.64,3.01,3.47,5.11.83,2.1,1.24,4.64,1.24,7.6v30.75h-12.62v-26.04c0-1.54-.06-2.99-.18-4.36-.12-1.36-.45-2.55-.98-3.55-.53-1.01-1.32-1.81-2.36-2.4-1.04-.59-2.44-.89-4.22-.89s-3.22.34-4.31,1.02c-1.1.68-1.95,1.57-2.58,2.67-.62,1.1-1.04,2.34-1.24,3.73-.21,1.39-.31,2.8-.31,4.22v25.6h-12.62v-25.77c0-1.36-.03-2.71-.09-4.04-.06-1.33-.31-2.56-.75-3.69-.45-1.12-1.19-2.03-2.22-2.71-1.04-.68-2.56-1.02-4.58-1.02-.59,0-1.38.13-2.36.4-.98.27-1.93.77-2.84,1.51-.92.74-1.7,1.81-2.36,3.2-.65,1.39-.98,3.22-.98,5.47v26.66h-12.62v-45.95h11.91Z" class="cls-3"></path>
    <path d="M313.2,75.48c1.9,1.84,4.62,2.75,8.18,2.75,2.55,0,4.74-.64,6.58-1.91,1.83-1.27,2.96-2.62,3.38-4.04h11.11c-1.78,5.51-4.5,9.45-8.18,11.82-3.67,2.37-8.12,3.56-13.33,3.56-3.61,0-6.87-.58-9.78-1.73-2.9-1.16-5.36-2.8-7.38-4.93-2.02-2.13-3.57-4.68-4.67-7.64-1.1-2.96-1.64-6.22-1.64-9.78s.56-6.64,1.69-9.6c1.12-2.96,2.73-5.52,4.8-7.69,2.07-2.16,4.55-3.87,7.42-5.11,2.87-1.24,6.06-1.87,9.55-1.87,3.91,0,7.32.76,10.22,2.27,2.9,1.51,5.29,3.54,7.15,6.09,1.87,2.55,3.21,5.45,4.04,8.71.83,3.26,1.12,6.67.89,10.22h-33.15c.18,4.09,1.21,7.05,3.11,8.89M327.47,51.3c-1.51-1.66-3.81-2.49-6.89-2.49-2.01,0-3.69.34-5.02,1.02-1.33.68-2.4,1.53-3.2,2.53-.8,1.01-1.36,2.07-1.69,3.2-.33,1.13-.52,2.13-.58,3.02h20.53c-.59-3.2-1.64-5.63-3.15-7.29M323.16,16.73l-9.42,15.73h8.8l14.49-15.73h-13.86Z" class="cls-3"></path>
    <path d="M361.02,40.55v8.53h.18c.59-1.42,1.39-2.74,2.4-3.96,1.01-1.21,2.16-2.25,3.47-3.11,1.3-.86,2.7-1.52,4.18-2,1.48-.47,3.02-.71,4.62-.71.83,0,1.75.15,2.76.44v11.73c-.59-.12-1.3-.22-2.13-.31-.83-.09-1.63-.13-2.4-.13-2.31,0-4.27.39-5.87,1.16-1.6.77-2.89,1.82-3.87,3.15-.98,1.33-1.67,2.89-2.09,4.67-.41,1.78-.62,3.7-.62,5.78v20.71h-12.62v-45.95h12Z" class="cls-3"></path>
    <path d="M382.26,23.04h12.62v10.4h-12.62v-10.4ZM394.88,86.5h-12.62v-45.95h12.62v45.95Z" class="cls-3"></path>
    <path d="M425.1,48.81c-2.02,0-3.7.46-5.06,1.38-1.36.92-2.48,2.1-3.33,3.56-.86,1.45-1.47,3.05-1.82,4.8-.36,1.75-.53,3.48-.53,5.2s.18,3.35.53,5.07c.36,1.72.93,3.27,1.73,4.67.8,1.39,1.88,2.53,3.24,3.42,1.36.89,3.02,1.33,4.98,1.33,3.02,0,5.35-.84,6.98-2.53,1.63-1.69,2.65-3.95,3.07-6.8h12.18c-.83,6.1-3.2,10.75-7.11,13.95-3.91,3.2-8.92,4.8-15.02,4.8-3.44,0-6.59-.58-9.47-1.73-2.87-1.16-5.32-2.77-7.33-4.84-2.02-2.07-3.59-4.55-4.71-7.42-1.13-2.87-1.69-6.03-1.69-9.47s.52-6.86,1.56-9.91c1.04-3.05,2.56-5.69,4.58-7.91,2.01-2.22,4.47-3.96,7.38-5.2,2.9-1.24,6.22-1.87,9.95-1.87,2.72,0,5.35.36,7.87,1.07,2.52.71,4.77,1.79,6.75,3.24,1.99,1.45,3.6,3.26,4.84,5.42,1.24,2.16,1.96,4.73,2.13,7.69h-12.35c-.83-5.27-3.94-7.91-9.33-7.91" class="cls-3"></path>
    <path d="M451.93,54.68c.18-2.96.92-5.42,2.22-7.38,1.3-1.95,2.96-3.52,4.98-4.71,2.01-1.18,4.28-2.03,6.8-2.53,2.52-.5,5.05-.76,7.6-.76,2.31,0,4.65.16,7.02.49,2.37.33,4.53.96,6.49,1.91,1.95.95,3.55,2.27,4.8,3.95,1.24,1.69,1.87,3.93,1.87,6.71v23.91c0,2.07.12,4.06.36,5.95.24,1.9.65,3.32,1.25,4.27h-12.8c-.24-.71-.43-1.44-.58-2.18-.15-.74-.25-1.5-.31-2.27-2.02,2.07-4.39,3.53-7.11,4.35-2.73.83-5.51,1.24-8.35,1.24-2.19,0-4.24-.27-6.13-.8-1.9-.53-3.55-1.36-4.98-2.49-1.42-1.12-2.53-2.55-3.33-4.27-.8-1.72-1.2-3.76-1.2-6.13,0-2.61.46-4.75,1.38-6.44.92-1.69,2.1-3.03,3.56-4.04,1.45-1.01,3.11-1.76,4.98-2.27,1.87-.5,3.75-.9,5.64-1.2,1.9-.3,3.76-.53,5.6-.71,1.84-.18,3.47-.44,4.89-.8,1.42-.36,2.55-.87,3.38-1.56.83-.68,1.21-1.67,1.16-2.98,0-1.36-.22-2.44-.67-3.24-.44-.8-1.04-1.42-1.78-1.87-.74-.44-1.6-.74-2.58-.89-.98-.15-2.03-.22-3.16-.22-2.49,0-4.44.53-5.87,1.6-1.42,1.07-2.25,2.84-2.49,5.33h-12.62ZM481.09,64.01c-.53.48-1.2.84-2,1.11-.8.27-1.66.49-2.58.67-.92.18-1.88.33-2.89.44-1.01.12-2.02.27-3.02.45-.95.18-1.88.41-2.8.71-.92.3-1.72.7-2.4,1.2-.68.5-1.23,1.14-1.64,1.91-.42.77-.62,1.75-.62,2.93s.21,2.07.62,2.84c.41.77.98,1.38,1.69,1.82.71.45,1.54.76,2.49.93.95.18,1.92.27,2.93.27,2.49,0,4.41-.41,5.78-1.24,1.36-.83,2.37-1.82,3.02-2.98.65-1.16,1.05-2.32,1.2-3.51.15-1.18.22-2.13.22-2.84v-4.71Z" class="cls-3"></path>
    <g>
      <path d="M155.23,103.86c0-.5.43-.93.93-.93h8.14c5.49,0,9.28,2.82,9.28,7.64v.07c0,5.25-4.53,7.96-9.74,7.96h-6.74v8.53c0,.5-.43.93-.93.93s-.93-.43-.93-.93v-23.27ZM163.93,116.89c4.64,0,7.78-2.43,7.78-6.14v-.07c0-3.96-3.07-6.03-7.56-6.03h-7.07v12.24h6.85Z" class="cls-1"></path>
      <path d="M175.75,122.63v-.07c0-3.78,3.25-5.92,7.96-5.92,2.53,0,4.28.32,6.03.79v-.79c0-3.68-2.25-5.57-5.99-5.57-2,0-3.68.5-5.17,1.21-.14.07-.29.11-.39.11-.43,0-.82-.39-.82-.82s.32-.71.5-.79c1.86-.82,3.68-1.36,5.99-1.36,2.46,0,4.43.68,5.75,2,1.21,1.21,1.85,2.89,1.85,5.14v10.6c0,.54-.36.89-.86.89s-.86-.36-.86-.89v-2.28c-1.25,1.75-3.5,3.46-6.96,3.46s-7.03-1.93-7.03-5.71M189.77,121.1v-2.07c-1.53-.39-3.57-.82-6.17-.82-3.85,0-5.99,1.71-5.99,4.25v.07c0,2.64,2.5,4.18,5.28,4.18,3.71,0,6.89-2.28,6.89-5.6" class="cls-1"></path>
      <path d="M195.88,125.92c-.14-.11-.32-.39-.32-.68,0-.46.39-.86.86-.86.21,0,.43.07.57.18,1.89,1.36,3.89,2.07,6.07,2.07,2.46,0,4.39-1.36,4.39-3.46v-.07c0-2.14-2.28-2.93-4.82-3.64-2.96-.86-6.24-1.75-6.24-5v-.07c0-2.93,2.46-5.03,5.99-5.03,1.96,0,4.14.64,5.89,1.64.22.14.46.39.46.79,0,.46-.39.86-.86.86-.21,0-.39-.07-.5-.14-1.57-.93-3.32-1.5-5.07-1.5-2.5,0-4.14,1.36-4.14,3.18v.07c0,2.03,2.46,2.78,5.07,3.53,2.93.82,5.99,1.89,5.99,5.1v.07c0,3.25-2.78,5.32-6.28,5.32-2.46,0-5.21-.96-7.06-2.36" class="cls-1"></path>
      <path d="M214.15,103.47c0-.61.46-1.07,1.07-1.07s1.11.46,1.11,1.07v.61c0,.61-.5,1.07-1.11,1.07s-1.07-.46-1.07-1.07v-.61ZM214.36,110.46c0-.5.36-.89.86-.89s.89.36.89.89v16.7c0,.53-.36.89-.86.89s-.89-.36-.89-.89v-16.7Z" class="cls-1"></path>
      <path d="M221.46,118.89v-.07c0-5.1,3.96-9.53,9.38-9.53s9.31,4.35,9.31,9.46v.07c0,5.1-3.96,9.53-9.39,9.53s-9.31-4.35-9.31-9.46M238.27,118.89v-.07c0-4.39-3.28-7.89-7.49-7.89s-7.42,3.53-7.42,7.81v.07c0,4.39,3.28,7.89,7.49,7.89s7.42-3.53,7.42-7.82M230.31,106.47c0-.14.07-.29.14-.39l2.21-3.32c.28-.43.57-.64,1-.64.68,0,1.5.46,1.5.82,0,.21-.18.43-.39.64l-2.85,2.75c-.43.39-.68.46-1.14.46-.25,0-.46-.14-.46-.32" class="cls-1"></path>
      <path d="M244.87,110.46c0-.5.36-.89.86-.89s.89.36.89.89v2.64c1.21-2.14,3.25-3.82,6.57-3.82,4.6,0,7.28,3.14,7.28,7.49v10.38c0,.53-.36.89-.86.89s-.89-.36-.89-.89v-10.06c0-3.75-2.11-6.21-5.78-6.21s-6.32,2.71-6.32,6.49v9.78c0,.53-.36.89-.86.89s-.89-.36-.89-.89v-16.7Z" class="cls-1"></path>
      <path d="M292.98,127.16c0,.53-.36.89-.86.89s-.89-.36-.89-.89v-3.32c-1.57,2.39-3.89,4.5-7.49,4.5-4.39,0-8.85-3.53-8.85-9.46v-.07c0-5.92,4.46-9.53,8.85-9.53,3.64,0,5.99,2.07,7.49,4.35v-11.03c0-.53.36-.89.86-.89s.89.36.89.89v24.55ZM276.78,118.74v.07c0,4.78,3.32,7.85,7.14,7.85s7.42-3.18,7.42-7.81v-.07c0-4.67-3.64-7.81-7.42-7.81s-7.14,2.89-7.14,7.78" class="cls-1"></path>
      <path d="M307,128.34c-4.78,0-8.92-3.82-8.92-9.49v-.07c0-5.28,3.71-9.49,8.64-9.49s8.35,4.21,8.35,9.42c0,.43-.43.82-.86.82h-14.27c.32,4.53,3.57,7.17,7.14,7.17,2.61,0,4.43-1.07,5.89-2.5.14-.14.32-.25.57-.25.46,0,.86.36.86.82,0,.18-.07.39-.28.61-1.78,1.78-3.82,2.96-7.1,2.96M313.18,117.96c-.25-3.68-2.36-7.07-6.53-7.07-3.6,0-6.39,3.03-6.71,7.07h13.24Z" class="cls-1"></path>
      <path d="M344.72,127.16c0,.5-.36.89-.86.89s-.89-.36-.89-.89v-2.64c-1.21,2.14-3.25,3.82-6.57,3.82-4.6,0-7.28-3.14-7.28-7.49v-10.38c0-.53.36-.89.86-.89s.89.36.89.89v10.06c0,3.75,2.11,6.21,5.78,6.21s6.32-2.71,6.32-6.49v-9.78c0-.53.36-.89.86-.89s.89.36.89.89v16.7Z" class="cls-1"></path>
      <path d="M350.65,110.46c0-.5.36-.89.86-.89s.89.36.89.89v2.64c1.21-2.14,3.25-3.82,6.57-3.82,4.6,0,7.28,3.14,7.28,7.49v10.38c0,.53-.36.89-.86.89s-.89-.36-.89-.89v-10.06c0-3.75-2.11-6.21-5.78-6.21s-6.31,2.71-6.31,6.49v9.78c0,.53-.36.89-.86.89s-.89-.36-.89-.89v-16.7Z" class="cls-1"></path>
      <path d="M382.27,103.86c0-.5.43-.93.93-.93h8.14c5.5,0,9.28,2.82,9.28,7.64v.07c0,5.25-4.53,7.96-9.74,7.96h-6.74v8.53c0,.5-.43.93-.93.93s-.93-.43-.93-.93v-23.27ZM390.97,116.89c4.64,0,7.78-2.43,7.78-6.14v-.07c0-3.96-3.07-6.03-7.57-6.03h-7.06v12.24h6.85Z" class="cls-1"></path>
      <path d="M420.27,127.16c0,.5-.36.89-.86.89s-.89-.36-.89-.89v-2.64c-1.21,2.14-3.25,3.82-6.57,3.82-4.6,0-7.28-3.14-7.28-7.49v-10.38c0-.53.36-.89.86-.89s.89.36.89.89v10.06c0,3.75,2.11,6.21,5.78,6.21s6.32-2.71,6.32-6.49v-9.78c0-.53.36-.89.86-.89s.89.36.89.89v16.7Z" class="cls-1"></path>
      <path d="M433.87,128.34c-4.78,0-8.92-3.82-8.92-9.49v-.07c0-5.28,3.71-9.49,8.64-9.49s8.35,4.21,8.35,9.42c0,.43-.43.82-.86.82h-14.27c.32,4.53,3.57,7.17,7.14,7.17,2.61,0,4.42-1.07,5.89-2.5.14-.14.32-.25.57-.25.46,0,.86.36.86.82,0,.18-.07.39-.28.61-1.78,1.78-3.82,2.96-7.1,2.96M440.04,117.96c-.25-3.68-2.36-7.07-6.53-7.07-3.6,0-6.39,3.03-6.71,7.07h13.24Z" class="cls-1"></path>
      <path d="M446.36,102.61c0-.54.36-.89.86-.89s.89.36.89.89v11.17c1.57-2.39,3.89-4.5,7.49-4.5,4.39,0,8.85,3.53,8.85,9.46v.07c0,5.92-4.46,9.53-8.85,9.53-3.64,0-5.99-2.07-7.49-4.35v3.17c0,.5-.36.89-.86.89s-.89-.39-.89-.89v-24.55ZM462.56,118.89v-.07c0-4.78-3.32-7.85-7.14-7.85s-7.42,3.18-7.42,7.81v.07c0,4.67,3.64,7.81,7.42,7.81s7.14-2.89,7.14-7.78" class="cls-1"></path>
      <path d="M469.49,102.61c0-.5.36-.89.86-.89s.89.39.89.89v24.55c0,.53-.36.89-.86.89s-.89-.36-.89-.89v-24.55Z" class="cls-1"></path>
      <path d="M476.2,118.89v-.07c0-5.1,3.96-9.53,9.38-9.53s9.31,4.35,9.31,9.46v.07c0,5.1-3.96,9.53-9.38,9.53s-9.31-4.35-9.31-9.46M493,118.89v-.07c0-4.39-3.28-7.89-7.49-7.89s-7.42,3.53-7.42,7.81v.07c0,4.39,3.28,7.89,7.49,7.89s7.42-3.53,7.42-7.82" class="cls-1"></path>
    </g>
  </g>
  <g>
    <path d="M117.04,8.68c-9.7,3.35-18.73,5.05-26.85,5.05-10.36,0-18.88-2.82-25.31-8.39l-1.99-1.72-1.99,1.72c-6.44,5.57-14.96,8.39-25.32,8.39-8.11,0-17.15-1.7-26.84-5.05l-4.04-1.4v89.34c0,14.19,0,21.33,8.05,26.22,6.56,4.32,17.83,5.46,26.07,6.29.67.07,1.32.13,1.95.2,4.58.48,16.74,1.74,19.42,6.91l2.7,5.21,2.7-5.21c2.68-5.16,14.84-6.43,19.42-6.91.63-.07,1.28-.13,1.95-.2,8.24-.83,19.51-1.97,26.07-6.29,8.06-4.89,8.05-12.03,8.05-26.22V7.28l-4.04,1.4ZM118.04,96.62c0,14.19-.08,19.69-6.64,23.64-6.42,4.27-18.67,5.2-26.71,6.03-6.08.63-18.41,2-21.81,8.53-3.39-6.53-15.72-7.9-21.81-8.53-8.04-.84-20.28-1.77-26.7-6.03-6.56-3.95-6.64-9.46-6.64-23.64V11.56c8.9,3.08,18.57,5.22,27.84,5.22,10.07,0,19.67-2.53,27.31-9.13,7.64,6.6,17.24,9.13,27.31,9.13,9.27,0,18.94-2.14,27.84-5.22v85.06Z" class="cls-2"></path>
    <path d="M85.37,67.57c-.71-.62-.18-1.34-.18-1.34,0,0,2.23-1.61,5.35-3.3,3.12-1.69,7.32-5,7.32-5,0,0-1.16.09-3.57,1.34-2.41,1.25-10.89,5.71-10.89,5.71l-.25-.65c-.3-.78-.05-1.47.07-2.3,0,0,.09-.62.98-1.07.89-.45,7.23-3.12,7.23-3.12,0,0-.8,0-2.59.45-1.78.44-6.96,1.87-7.41,2.41-.45.54-.33,5.44-.33,5.44l-5.09,3.14c-.7-.67-4.22-4.89-4.68-5.58-.35-.54-.86-1.42-1.4-2.08-.32-.39-.65-.7-.96-.82-1.9-.73-2.73.12-3.76-1.73l.65-.88,2.1.72.74-.46c-.82-1.49-.29-2.25-.03-3.87l.91-.57-.77-.93-.1-3.55.84-1.42-1.64.29c-.64-.44-3.22-1.11-4.11-1.17l-.28-.02c-2.25-.15-3.42,1.18-4.15,3.04-.93,2.35.62,3.91.47,6.21-.21,3.16-3.3,3.31-5.8,4.94-.8.52-1.54,1.2-2.11,2.17-1.4,2.41-5.72,7.55-6.31,9.3.99,1.88,1.57,3.88,2.76,5.95,1.02,1.79,2.86,3.68,3.24,5.63l-1.18.73c-2.54-.95-4.11-5.61-8-6.59-.34-.09-.7-.14-1.08-.17l-1.11-.07c-2.89-.19-5.17,2.16-5.35,4.95l-.04.56c-.22,3.46,2.78,6.82,3.33,9.18l-11.11,7.35c.15.08.5.79.65.69l11.25-7.08,2.99,4.28-1.08-.02-2.2-.4c.4.6,2.12,1.6,3.74,2.27,1.2.51,2.35.83,2.85.69.61-1.38-.19-5.24-.35-6.82l-1.15,3.31-.73-.19-.61-.78-2.24-2.82.05-.29,2.19-1.4,7.84-5.03,2.23.45,1.51.1h.16c.07,2.95.75,5.47,2.04,8.18.33.69.93,3.5.75,4.26-.37,1.54-1.79,1.86-2.57,2.77-.13.16-.26.31-.38.46-2.06,2.53-2.06,3.8-3.22,6.78-1.36,3.48-2.19,3.78-4.87,6.13l-.09.76c-.27,2.08,1.89,2.16,3.07,3.33.85.85,1.1,2.48,2.39,3.97l1.04.1.28.04,1.4-.06,1.39-.06c-.06-1.17.36-.69-.98-.97-.15-.16-.28-.33-.41-.49-1.34-1.69-1.92-3.46-2.32-5.76.49-1.58,1.33-3.03,2.32-4.38.89-1.21,1.9-2.34,2.87-3.44,1.58-1.77,5.97-5.01,6.09-6.8.06-.96-.23-.79-.15-1.97l.15-3.07.47-2.2.04-.56c.06-.9-.03-.92-.19-1.71l.57-.6,6.03,2.03,2.51.84c-.47,1.37-1.3,2.41-1.39,3.84l-.04.56c-.12,1.9.74,3.54.19,5.58-.21.79-.75,1.57-1.28,2.3-.63.88-1.26,1.68-1.26,2.3l.03.77c.47.42.86.66,1.23.88.59.35,1.15.64,1.96,1.56,1.3,1.48,1.13,2.66,3.1,2.78l.56.04c1.09.07,3.09-.08,3.38-1.15-4.09-.47-4.2-2.78-4.88-6.25.56-.85,1.96-6.2,2.87-8.06.89-1.8,3.7-5.85,2.3-7.69-1.93-2.55-5.88-5.27-9.29-7.44-1.18-.75-2.29-1.43-3.23-2.01-.21-.64-.49-1.32-.39-2.07l.98-4.6,2.64-1.64,2.54-1.57.02.03.31-.17.52.03c1.31,1.13,3.49,3.17,5.02,3.99,1.73.93,4.38,2.2,5.85,3.52.06,1.13.4,3.49,1.24,4.28l.24-.39.28-.46.06-1.86,1.13-.19,2.4,3.36c.28-4.36-1.46-4.88-3.86-6.46-.58-.38-1.19-.82-1.83-1.39-1.84-1.66-5.05-4.84-6.79-6.82l5.27-2.97s.98.98,1.69,1.61c2.57,2.25,2.88,1.12,5.36-.63,2.41-1.69,4.64-4.64,4.64-4.64,0,0-3.57,2.5-5.71,3.57-2.14,1.07-2.23.71-2.95.09M42.48,90.32l-2.97,1.94c-1.47-1.12-3.62-6.28-3.49-8.31l.04-.56c.17-2.55,2.32-4.04,4.72-3.88l.28.02c.46.03.94.16,1.43.38,2.54,1.11,5.2,4.36,6.47,6.19l-6.47,4.23ZM54.06,85.92l-1.64.04-.05-.28,1.7-1.05.1-.06.22,1.34h-.31ZM54.95,80.44c-.33-.19-.62-.35-.89-.5-1.19-.65-1.89-1.08-2.29-2.74-.24-.99-1.04-4.02-.97-4.78,2.31-1.6,1.64-.94,3.26-2.73l.21-.23c1.01.89,2.41,4.16,2.83,5.43.83,2.52-.74,3.18-2.15,5.55M68.1,74.19l1.5-4.89.34.39,1.84,2.07-1.84,1.22-1.84,1.22Z" class="cls-2"></path>
    <path d="M86.79,101.74c-2.76,0-5,2.24-5,5s2.24,5,5,5,5-2.24,5-5-2.24-5-5-5" class="cls-2"></path>
    <path d="M27.17,21.86l6.49,17.36h-3.96l-1.31-3.87h-6.49l-1.36,3.87h-3.84l6.56-17.36h3.91ZM27.38,32.5l-2.19-6.37h-.05l-2.26,6.37h4.5Z" class="cls-2"></path>
    <path d="M37.67,26.65v1.7h.05c.45-.65,1-1.15,1.64-1.51.64-.36,1.37-.53,2.2-.53s1.52.15,2.17.46c.66.31,1.15.85,1.5,1.63.37-.55.88-1.04,1.52-1.46.64-.42,1.4-.63,2.27-.63.66,0,1.28.08,1.85.24.57.16,1.05.42,1.46.78.4.36.72.82.95,1.4.23.58.34,1.27.34,2.08v8.41h-3.45v-7.12c0-.42-.02-.82-.05-1.19-.03-.37-.12-.7-.27-.97-.15-.28-.36-.49-.64-.66-.28-.16-.67-.24-1.16-.24s-.88.09-1.18.28c-.3.19-.53.43-.7.73-.17.3-.28.64-.34,1.02s-.09.77-.09,1.15v7h-3.45v-7.05c0-.37,0-.74-.02-1.11-.02-.37-.08-.7-.21-1.01-.12-.31-.33-.56-.61-.74-.28-.19-.7-.28-1.25-.28-.16,0-.38.04-.64.11-.27.07-.53.21-.78.41-.25.2-.47.49-.64.87-.18.38-.27.88-.27,1.5v7.29h-3.45v-12.57h3.26Z" class="cls-2"></path>
    <path d="M59.58,36.2c.52.5,1.26.75,2.24.75.7,0,1.3-.17,1.8-.52.5-.35.81-.72.92-1.11h3.04c-.49,1.51-1.23,2.59-2.24,3.23-1,.65-2.22.97-3.65.97-.99,0-1.88-.16-2.68-.47-.79-.32-1.47-.77-2.02-1.35-.55-.58-.98-1.28-1.28-2.09-.3-.81-.45-1.7-.45-2.67s.15-1.82.46-2.63c.31-.81.75-1.51,1.31-2.1.57-.59,1.25-1.06,2.03-1.4.79-.34,1.66-.51,2.61-.51,1.07,0,2,.21,2.8.62.79.41,1.45.97,1.96,1.67.51.7.88,1.49,1.1,2.38.23.89.31,1.82.24,2.8h-9.07c.05,1.12.33,1.93.85,2.43M63.48,29.59c-.41-.45-1.04-.68-1.89-.68-.55,0-1.01.09-1.37.28-.37.19-.66.42-.88.69s-.37.57-.46.87c-.09.31-.14.58-.16.83h5.62c-.16-.87-.45-1.54-.86-1.99M62.3,20.13l-2.58,4.3h2.41l3.96-4.3h-3.79Z" class="cls-2"></path>
    <path d="M72.66,26.65v2.33h.05c.16-.39.38-.75.66-1.08.27-.33.59-.61.95-.85.36-.23.74-.42,1.14-.55.4-.13.83-.19,1.26-.19.23,0,.48.04.75.12v3.21c-.16-.03-.36-.06-.58-.09-.23-.02-.45-.04-.66-.04-.63,0-1.17.11-1.6.32-.44.21-.79.5-1.06.86-.27.37-.46.79-.57,1.28-.11.49-.17,1.01-.17,1.58v5.67h-3.45v-12.57h3.28Z" class="cls-2"></path>
    <path d="M78.47,21.86h3.45v2.84h-3.45v-2.84ZM81.92,39.22h-3.45v-12.57h3.45v12.57Z" class="cls-2"></path>
    <path d="M90.18,28.91c-.55,0-1.01.13-1.38.38-.37.25-.68.57-.91.97-.23.4-.4.84-.5,1.31-.1.48-.15.95-.15,1.42s.05.92.15,1.39c.1.47.26.89.48,1.28.22.38.51.69.89.94.37.24.83.37,1.36.37.83,0,1.46-.23,1.91-.69.45-.46.73-1.08.84-1.86h3.33c-.23,1.67-.87,2.94-1.94,3.82-1.07.87-2.44,1.31-4.11,1.31-.94,0-1.8-.16-2.59-.47-.79-.32-1.46-.76-2.01-1.32-.55-.57-.98-1.24-1.29-2.03-.31-.79-.46-1.65-.46-2.59s.14-1.88.43-2.71c.28-.84.7-1.56,1.25-2.16.55-.61,1.22-1.08,2.02-1.42.79-.34,1.7-.51,2.72-.51.74,0,1.46.1,2.15.29.69.19,1.3.49,1.85.89.54.4.98.89,1.32,1.48.34.59.54,1.29.58,2.1h-3.38c-.23-1.44-1.08-2.16-2.55-2.16" class="cls-2"></path>
    <path d="M97.53,30.51c.05-.81.25-1.48.61-2.02.35-.54.81-.96,1.36-1.29.55-.32,1.17-.56,1.86-.69.69-.14,1.38-.21,2.08-.21.63,0,1.27.04,1.92.13.65.09,1.24.26,1.78.52.54.26.97.62,1.31,1.08.34.46.51,1.07.51,1.84v6.54c0,.57.03,1.11.1,1.63.07.52.18.91.34,1.17h-3.5c-.07-.19-.12-.39-.16-.6-.04-.2-.07-.41-.08-.62-.55.57-1.2.96-1.94,1.19-.75.23-1.51.34-2.29.34-.6,0-1.16-.07-1.68-.22-.52-.15-.97-.37-1.36-.68-.39-.31-.69-.7-.91-1.17-.22-.47-.33-1.03-.33-1.68,0-.71.12-1.3.38-1.76.25-.46.57-.83.97-1.11.4-.28.85-.48,1.36-.62.51-.14,1.02-.25,1.54-.33.52-.08,1.03-.15,1.53-.19.5-.05.95-.12,1.34-.22.39-.1.7-.24.92-.43.23-.19.33-.46.32-.81,0-.37-.06-.67-.18-.89-.12-.22-.28-.39-.49-.51-.2-.12-.44-.2-.71-.24-.27-.04-.56-.06-.86-.06-.68,0-1.22.15-1.6.44-.39.29-.62.78-.68,1.46h-3.45ZM105.5,33.06c-.15.13-.33.23-.55.3-.22.07-.45.13-.71.18-.25.05-.51.09-.79.12-.28.03-.55.07-.83.12-.26.05-.51.11-.77.19-.25.08-.47.19-.66.33-.19.14-.34.31-.45.52-.11.21-.17.48-.17.8s.06.57.17.78c.11.21.27.38.46.5.2.12.42.21.68.26.26.05.53.07.8.07.68,0,1.21-.11,1.58-.34.37-.23.65-.5.83-.82.18-.32.29-.63.33-.96.04-.32.06-.58.06-.78v-1.29Z" class="cls-2"></path>
  </g>
</svg>